<svg width="160" height="160" viewBox="0 0 160 160" fill="none" xmlns="http://www.w3.org/2000/svg">
<rect width="160" height="160" rx="10" fill="#F5F5F5"/>
<g clip-path="url(#clip0_985_6705)">
<path d="M65.4313 60.0364L94.3448 60C97.4644 60.2551 99.8106 62.6418 99.9993 65.7676V94.1985C99.86 96.8624 98.0437 99.1385 95.4541 99.7788C85.6005 100.221 75.6611 99.8399 65.7763 99.974C62.6489 99.8165 60.1569 97.3283 59.998 94.1985L60.0059 65.6453C60.2571 62.6626 62.4458 60.3579 65.4313 60.0364ZM97.6584 86.8614V65.5139C97.6584 65.2992 97.187 64.1735 97.0347 63.9314C96.4097 62.9372 95.1129 62.3854 93.9633 62.3294L65.7841 62.3359C64.6735 62.509 63.5824 62.9437 62.9666 63.9314C62.8143 64.1761 62.3429 65.2978 62.3429 65.5139V86.2134L71.7564 76.0861L84.6371 87.7568L91.7525 82.0555L97.6597 86.8627L97.6584 86.8614ZM97.6297 89.8728L91.7499 85.0877L84.628 90.8761L71.6939 79.3357L62.4614 89.7713C62.2062 92.8516 61.6477 97.1396 65.7841 97.6315L94.3331 97.6185C98.4174 97.0368 97.6518 92.9531 97.6297 89.8728Z" fill="#E0E0E0"/>
<path d="M88.1383 65.8876C95.7264 65.7692 96.0649 77.2433 88.5107 77.652C80.7156 78.0736 80.2612 66.01 88.1383 65.8876ZM90.7319 69.2582C89.3362 67.8618 86.6853 67.9373 85.4549 69.5367C83.0019 72.7263 86.7868 76.9102 90.2189 74.6874C92.0235 73.5188 92.2266 70.7534 90.7319 69.2582Z" fill="#E0E0E0"/>
</g>
<defs>
<clipPath id="clip0_985_6705">
<rect width="40" height="40" fill="white" transform="translate(60 60)"/>
</clipPath>
</defs>
</svg>
