<svg width="241" height="28" viewBox="0 0 241 28" fill="none" xmlns="http://www.w3.org/2000/svg">
<path d="M6.72091 26.2319C4.62327 25.0529 2.97884 23.3963 1.78763 21.2612C0.595606 19.1269 0 16.7063 0 14C0 11.2937 0.595606 8.87469 1.78763 6.73881C2.97884 4.60456 4.62327 2.94711 6.72091 1.7681C8.81855 0.589911 11.1953 0 13.8511 0C15.9609 0 17.8845 0.360456 19.6225 1.07974C21.3596 1.79984 22.843 2.80553 24.0716 4.09601C24.0919 4.11798 24.1131 4.13914 24.1334 4.16111C26.0887 6.25793 23.3841 9.42799 20.9797 7.86656C20.1058 7.29862 19.2229 6.7022 18.6542 6.25549C17.3881 5.26281 15.9113 4.76566 14.2229 4.76566C12.7583 4.76566 11.4304 5.13181 10.2384 5.86412C9.04719 6.59642 8.11635 7.60212 7.44589 8.88039C6.77543 10.1587 6.4402 11.6168 6.4402 13.2555C6.4402 14.8942 6.78763 16.4451 7.48251 17.8348C8.17738 19.2254 9.18877 20.336 10.5175 21.1676C11.8454 22 13.428 22.415 15.2653 22.415C17.1025 22.415 18.8706 22.0049 20.3483 21.1855C21.3124 20.6509 22.1782 19.9894 22.9471 19.2002C23.6729 18.4548 24.8454 18.3759 25.6908 18.9829C26.6444 19.6672 26.8544 20.9854 26.1896 21.952C25.1017 23.533 23.6949 24.8413 21.9683 25.8771C19.6094 27.2921 16.9414 28 13.9626 28C11.2319 28 8.81774 27.4101 6.7201 26.2311L6.72091 26.2319Z" fill="#FF5116"/>
<path d="M52.4847 1.76892C54.5824 2.94793 56.2268 4.60456 57.418 6.73963C58.6092 8.87388 59.2057 11.2945 59.2057 14C59.2057 16.7055 58.61 19.1253 57.418 21.2612C56.2268 23.3954 54.5824 25.0529 52.4847 26.2319C50.3871 27.4101 48.0104 28 45.3546 28C43.2447 28 41.3212 27.6395 39.5832 26.9203C37.846 26.2002 36.3627 25.1945 35.1341 23.904C35.1137 23.882 35.0926 23.8609 35.0722 23.8389C33.117 21.7421 35.8216 18.572 38.226 20.1334C39.0999 20.7014 39.9827 21.2978 40.5515 21.7445C41.8175 22.7372 43.2943 23.2343 44.9827 23.2343C46.4473 23.2343 47.7752 22.8682 48.9672 22.1359C50.1585 21.4036 51.0893 20.3979 51.7598 19.1196C52.4302 17.8413 52.7655 16.3832 52.7655 14.7445C52.7655 13.1058 52.418 11.5549 51.7231 10.1652C51.0283 8.77461 50.0169 7.66395 48.6882 6.83238C47.3603 6 45.7777 5.58503 43.9404 5.58503C42.1031 5.58503 40.335 5.99512 38.8574 6.81448C37.8932 7.34906 37.0275 8.01058 36.2585 8.79984C35.5327 9.54516 34.3603 9.62408 33.5149 9.01709C32.5612 8.33279 32.3513 7.01465 33.0161 6.04801C34.1039 4.46705 35.5108 3.15867 37.2374 2.12286C39.5962 0.707893 42.2642 0 45.2431 0C47.9738 0 50.3879 0.589911 52.4856 1.76892H52.4847Z" fill="#FF5116"/>
<path d="M32.7238 13.4853C33.4479 12.5128 33.2467 11.1376 32.2744 10.4137C31.3021 9.68977 29.9269 9.89125 29.2029 10.8637L26.4856 14.5132C25.7615 15.4857 25.9627 16.8609 26.935 17.5848C27.9073 18.3088 29.2825 18.1073 30.0065 17.1348L32.7238 13.4853Z" fill="#FF5116"/>
<path d="M72.9421 23.1856C71.3851 22.3119 70.1662 21.0811 69.2806 19.4979C68.3974 17.9124 67.9546 16.1174 67.9546 14.1081C67.9546 12.0988 68.3974 10.3038 69.2806 8.7206C70.1639 7.13746 71.3851 5.90665 72.9421 5.03294C74.4967 4.15924 76.2608 3.72119 78.232 3.72119C79.7984 3.72119 81.2245 3.98783 82.5148 4.5211C83.8027 5.05675 84.905 5.8019 85.8168 6.75893C86.1358 7.09222 86.4286 7.44933 86.6952 7.82785C87.4761 8.93249 86.9071 10.4847 85.6073 10.8632L85.4954 10.8965C84.6145 11.1537 83.6956 10.7585 83.2195 9.97522C82.8338 9.34196 82.36 8.80393 81.7982 8.36112C80.8578 7.6255 79.7627 7.25649 78.5105 7.25649C77.4225 7.25649 76.4393 7.52789 75.5537 8.07068C74.6705 8.61347 73.9801 9.36101 73.4825 10.3085C72.985 11.2584 72.7374 12.3392 72.7374 13.5558C72.7374 14.7723 72.9945 15.9221 73.5111 16.953C74.0277 17.9838 74.7776 18.8099 75.7632 19.4265C76.7488 20.0431 77.9225 20.3526 79.2866 20.3526C80.6507 20.3526 81.9625 20.0478 83.0576 19.4408C83.7718 19.0432 84.4146 18.5528 84.9859 17.9671C85.524 17.4148 86.3953 17.3553 87.0214 17.8053C87.7285 18.3123 87.8856 19.2908 87.3904 20.0074C86.5834 21.181 85.5382 22.1524 84.2574 22.9189C82.5076 23.9688 80.5269 24.4949 78.3177 24.4949C76.2917 24.4949 74.4991 24.0569 72.9445 23.1832L72.9421 23.1856Z" fill="black"/>
<path d="M89.8364 3.49988H94.2026V13.1702L93.4289 12.3417C93.9264 11.4013 94.6073 10.6705 95.4739 10.1443C96.3404 9.62059 97.326 9.35633 98.4307 9.35633C99.5353 9.35633 100.511 9.55869 101.304 9.96341C102.097 10.3681 102.704 10.9942 103.128 11.8418C103.551 12.6893 103.763 13.7582 103.763 15.0461V24.1641H99.4258V15.627C99.4258 14.9819 99.3186 14.4486 99.1091 14.0248C98.8973 13.6011 98.6021 13.2892 98.2259 13.0845C97.8474 12.8821 97.4117 12.7797 96.9142 12.7797C96.3619 12.7797 95.8786 12.9035 95.4643 13.1535C95.0501 13.4035 94.7359 13.7439 94.524 14.1748C94.3121 14.6081 94.205 15.0914 94.205 15.6246V24.1617H89.8388V3.49988H89.8364Z" fill="black"/>
<path d="M108.919 23.8905C108.126 23.4858 107.519 22.8597 107.095 22.0122C106.672 21.1647 106.46 20.0957 106.46 18.8078V9.68982H110.826V18.2269C110.826 18.8721 110.926 19.4053 111.131 19.8291C111.333 20.2529 111.623 20.5647 112.002 20.7695C112.378 20.9718 112.826 21.0742 113.342 21.0742C113.859 21.0742 114.352 20.9504 114.766 20.7004C115.18 20.4505 115.502 20.11 115.732 19.6791C115.963 19.2458 116.078 18.7626 116.078 18.2293V9.68982H120.415V24.1667H116.354V20.2981L116.961 21.1266C116.537 22.1574 115.871 22.9787 114.959 23.5858C114.047 24.1929 112.992 24.4976 111.795 24.4976C110.671 24.4976 109.714 24.2952 108.921 23.8905H108.919Z" fill="black"/>
<path d="M126.361 23.5313C125.182 22.8861 124.256 21.9886 123.585 20.8387C122.913 19.6889 122.575 18.3843 122.575 16.9297C122.575 15.4751 122.916 14.149 123.597 13.0063C124.278 11.8636 125.232 10.9708 126.456 10.3257C127.68 9.68052 129.048 9.35913 130.558 9.35913C131.717 9.35913 132.791 9.5472 133.777 9.92573C134.762 10.3043 135.6 10.8637 136.29 11.6112C136.981 12.3564 137.483 13.273 137.795 14.3609L134.315 15.356C134.019 14.4728 133.546 13.7896 132.891 13.311C132.236 12.8325 131.496 12.5921 130.667 12.5921C129.967 12.5921 129.327 12.7587 128.746 13.0896C128.165 13.4206 127.715 13.8919 127.392 14.499C127.07 15.1061 126.908 15.7893 126.908 16.544C126.908 17.2987 127.077 18.0676 127.42 18.739C127.761 19.4127 128.263 19.9412 128.925 20.3269C129.587 20.7126 130.363 20.9078 131.246 20.9078C132.129 20.9078 133.046 20.7149 133.938 20.3269C134.831 19.9412 135.581 19.4246 136.191 18.7795L137.905 20.0222C137.647 20.6483 137.181 21.3077 136.51 21.9981C135.836 22.6885 134.972 23.2789 133.912 23.767C132.853 24.255 131.67 24.5002 130.363 24.5002C128.87 24.5002 127.534 24.1764 126.356 23.5337L126.361 23.5313Z" fill="black"/>
<path d="M139.759 3.49988H144.125V24.1665H139.759V3.49988ZM141.885 18.6671L149.539 9.68725H153.931L147.632 16.9816L146.83 17.3959L143.487 21.3478L141.885 18.6671ZM144.178 16.5412L148.184 15.3247L154.153 24.1665H149.318L144.178 16.5412Z" fill="black"/>
<path d="M159.62 23.1858C158.063 22.312 156.844 21.0812 155.959 19.4981C155.075 17.9149 154.633 16.1175 154.633 14.1106C154.633 12.1037 155.075 10.3063 155.959 8.72317C156.842 7.14002 158.063 5.90921 159.62 5.03551C161.177 4.1618 162.939 3.72375 164.91 3.72375C166.476 3.72375 167.902 3.99039 169.193 4.52366C170.481 5.05931 171.583 5.80446 172.495 6.76149C172.814 7.09479 173.104 7.45189 173.373 7.83042C174.154 8.93505 173.585 10.4872 172.285 10.8658L172.173 10.8991C171.293 11.1562 170.374 10.7634 169.897 9.97778C169.512 9.34452 169.038 8.80649 168.476 8.36369C167.536 7.62806 166.441 7.25905 165.188 7.25905C164.101 7.25905 163.117 7.53045 162.232 8.07324C161.348 8.61604 160.658 9.36357 160.16 10.3111C159.663 11.261 159.415 12.3418 159.415 13.5583C159.415 14.7748 159.672 15.9247 160.189 16.9555C160.703 17.9864 161.456 18.8125 162.441 19.4291C163.427 20.0457 164.6 20.3551 165.965 20.3551C167.329 20.3551 168.64 20.0504 169.736 19.4433C170.452 19.0458 171.095 18.5553 171.664 17.9697C172.202 17.4174 173.073 17.3579 173.699 17.8078C174.406 18.3149 174.564 19.2934 174.068 20.0099C173.261 21.1836 172.216 22.1549 170.935 22.9215C169.186 23.9714 167.205 24.4975 164.996 24.4975C162.97 24.4975 161.179 24.0595 159.622 23.1858H159.62Z" fill="black"/>
<path d="M176.518 3.49988H180.884V13.1702L180.11 12.3417C180.608 11.4013 181.289 10.6705 182.155 10.1443C183.019 9.62059 184.007 9.35633 185.112 9.35633C186.217 9.35633 187.193 9.55869 187.986 9.96341C188.778 10.3681 189.385 10.9942 189.809 11.8418C190.233 12.6893 190.445 13.7582 190.445 15.0461V24.1641H186.107V15.627C186.107 14.9819 186 14.4486 185.791 14.0248C185.579 13.6011 185.283 13.2892 184.907 13.0845C184.529 12.8821 184.093 12.7797 183.596 12.7797C183.043 12.7797 182.56 12.9035 182.146 13.1535C181.732 13.4035 181.417 13.7439 181.205 14.1748C180.993 14.6081 180.889 15.0914 180.889 15.6246V24.1617H176.523V3.49988H176.518Z" fill="black"/>
<path d="M195.599 23.8905C194.806 23.4858 194.199 22.8597 193.775 22.0122C193.351 21.1647 193.139 20.0957 193.139 18.8078V9.68982H197.506V18.2269C197.506 18.8721 197.606 19.4053 197.81 19.8291C198.013 20.2529 198.303 20.5647 198.682 20.7695C199.058 20.9718 199.505 21.0742 200.022 21.0742C200.539 21.0742 201.031 20.9504 201.446 20.7004C201.86 20.4505 202.181 20.11 202.412 19.6791C202.643 19.2458 202.757 18.7626 202.757 18.2293V9.68982H207.095V24.1667H203.033V20.2981L203.641 21.1266C203.217 22.1574 202.55 22.9787 201.638 23.5858C200.727 24.1929 199.672 24.4976 198.474 24.4976C197.351 24.4976 196.394 24.2952 195.601 23.8905H195.599Z" fill="black"/>
<path d="M213.042 23.5313C211.864 22.8861 210.938 21.9886 210.266 20.8387C209.595 19.6889 209.257 18.3843 209.257 16.9297C209.257 15.4751 209.597 14.149 210.278 13.0063C210.959 11.8636 211.914 10.9708 213.137 10.3257C214.361 9.68052 215.73 9.35913 217.239 9.35913C218.399 9.35913 219.472 9.5472 220.458 9.92573C221.444 10.3043 222.282 10.8637 222.972 11.6112C223.662 12.3564 224.165 13.273 224.476 14.3609L220.996 15.356C220.701 14.4728 220.227 13.7896 219.572 13.311C218.918 12.8325 218.177 12.5921 217.349 12.5921C216.649 12.5921 216.008 12.7587 215.428 13.0896C214.847 13.4206 214.397 13.8919 214.073 14.499C213.752 15.1061 213.59 15.7893 213.59 16.544C213.59 17.2987 213.759 18.0676 214.102 18.739C214.442 19.4127 214.944 19.9412 215.606 20.3269C216.268 20.7126 217.044 20.9078 217.927 20.9078C218.81 20.9078 219.727 20.7149 220.62 20.3269C221.513 19.9412 222.262 19.4246 222.872 18.7795L224.586 20.0222C224.329 20.6483 223.862 21.3077 223.191 21.9981C222.517 22.6885 221.653 23.2789 220.594 23.767C219.534 24.255 218.351 24.5002 217.044 24.5002C215.551 24.5002 214.216 24.1764 213.037 23.5337L213.042 23.5313Z" fill="black"/>
<path d="M226.437 3.49988H230.803V24.1665H226.437V3.49988ZM228.566 18.6671L236.219 9.68725H240.612L234.313 16.9816L233.51 17.3959L230.168 21.3478L228.566 18.6671ZM230.858 16.5412L234.865 15.3247L240.833 24.1665H235.998L230.858 16.5412Z" fill="black"/>
</svg>
