<svg width="40" height="40" viewBox="0 0 40 40" fill="none" xmlns="http://www.w3.org/2000/svg">
<g clip-path="url(#clip0_3488_17563)">
<path d="M39.5 20C39.5 9.23045 30.7696 0.5 20 0.5C9.23045 0.5 0.5 9.23045 0.5 20C0.5 30.7696 9.23045 39.5 20 39.5C30.7696 39.5 39.5 30.7696 39.5 20Z" fill="white"/>
<mask id="mask0_3488_17563" style="mask-type:luminance" maskUnits="userSpaceOnUse" x="10" y="10" width="20" height="20">
<path d="M30 10H10V30H30V10Z" fill="white"/>
</mask>
<g mask="url(#mask0_3488_17563)">
<path d="M29.6 20.2274C29.6 19.5183 29.5364 18.8365 29.4182 18.1819H20V22.0501H25.3818C25.15 23.3001 24.4455 24.3592 23.3864 25.0683V27.5774H26.6182C28.5091 25.8365 29.6 23.2728 29.6 20.2274Z" fill="#4285F4"/>
<path d="M20.0009 30.0004C22.7009 30.0004 24.9645 29.1049 26.619 27.5777L23.3872 25.0686C22.4918 25.6686 21.3463 26.0231 20.0009 26.0231C17.3963 26.0231 15.1918 24.264 14.4054 21.9004H11.0645V24.4913C12.71 27.7595 16.0918 30.0004 20.0009 30.0004Z" fill="#34A853"/>
<path d="M14.4045 21.8997C14.2045 21.2997 14.0909 20.6588 14.0909 19.9997C14.0909 19.3406 14.2045 18.6997 14.4045 18.0997V15.5088H11.0636C10.3864 16.8588 10 18.3861 10 19.9997C10 21.6133 10.3864 23.1406 11.0636 24.4906L14.4045 21.8997Z" fill="#FBBC04"/>
<path d="M20.0009 13.9773C21.469 13.9773 22.7872 14.4818 23.8236 15.4727L26.6918 12.6045C24.96 10.9909 22.6963 10 20.0009 10C16.0918 10 12.71 12.2409 11.0645 15.5091L14.4054 18.1C15.1918 15.7364 17.3963 13.9773 20.0009 13.9773Z" fill="#E94235"/>
</g>
<path d="M39.5 20C39.5 9.23045 30.7696 0.5 20 0.5C9.23045 0.5 0.5 9.23045 0.5 20C0.5 30.7696 9.23045 39.5 20 39.5C30.7696 39.5 39.5 30.7696 39.5 20Z" stroke="#747775"/>
</g>
<defs>
<clipPath id="clip0_3488_17563">
<rect width="40" height="40" fill="white"/>
</clipPath>
</defs>
</svg>
